<svg xmlns="http://www.w3.org/2000/svg" viewBox="0 0 512 512" role="img" aria-labelledby="title desc">
  <title id="title">Inicio Logo</title>
  <desc id="desc">Stylised white ribbon forming an infinity loop on a blue gradient background with the word Inicio underneath.</desc>
  <defs>
    <linearGradient id="bgGradient" x1="0%" y1="0%" x2="100%" y2="100%">
      <stop offset="0%" stop-color="#0b2c70" />
      <stop offset="50%" stop-color="#164a9b" />
      <stop offset="100%" stop-color="#1c62c0" />
    </linearGradient>
  </defs>
  <rect width="512" height="512" fill="url(#bgGradient)" />
  <g transform="translate(42 70) scale(1.05)">
    <path
      d="M134 120C98 120 70 150 70 194c0 44 29 76 68 76 26 0 46-15 70-44 31 36 55 52 80 52 44 0 78-37 78-86 0-45-31-79-72-79-28 0-53 16-76 52-25-43-47-65-84-65zm4 35c21 0 38 12 59 49l19 34 21-34c20-32 38-44 58-44 26 0 46 23 46 53 0 30-19 53-44 53-21 0-41-15-67-46l-17-20-16 21c-18 24-35 35-54 35-28 0-49-24-49-55 0-33 18-56 44-56z"
      fill="#ffffff"
      fill-rule="evenodd"
    />
  </g>
  <text x="50%" y="450" font-family="'Montserrat','Helvetica Neue',Arial,sans-serif" font-size="92" fill="#ffffff" text-anchor="middle" font-weight="700">INICIO</text>
</svg>
